<svg width="457" height="166" viewBox="0 0 457 166" fill="none" xmlns="http://www.w3.org/2000/svg">
<g clip-path="url(#clip0_7519_482)">
<path d="M251.716 69.0484C251.279 69.299 250.897 69.5997 250.514 69.9505C250.023 70.4016 249.913 71.9051 250.35 72.3111C250.897 72.7622 251.552 72.5116 252.153 72.261C253.082 71.86 253.956 71.3589 254.884 70.9078C255.922 70.4066 256.96 70.0057 258.271 69.4042C258.817 70.156 259.254 70.6071 259.582 71.1083C260.565 72.8123 261.822 74.3209 263.078 75.8244C263.734 76.5762 264.498 77.2779 265.263 77.9795C265.536 78.18 265.755 78.4306 266.028 78.6311C266.629 79.1322 267.394 79.2325 268.213 79.0821C268.322 79.0821 268.486 78.9819 268.541 78.8817C268.595 78.6812 268.65 78.3805 268.541 78.2301C268.377 77.9294 268.049 77.6788 267.776 77.4282C266.957 76.6764 266.192 75.8244 265.482 74.9674C263.843 73.0128 262.587 70.8025 261.385 68.5973C261.166 68.1964 261.33 67.5448 261.658 67.2942C261.986 67.0938 262.259 66.8432 262.587 66.6427C264.007 65.8408 265.482 65.089 266.902 64.232C267.776 63.7308 268.595 63.1795 269.415 62.6282C270.016 62.2272 269.906 61.2249 269.306 60.7237C268.923 60.3729 268.377 60.1724 267.885 60.3729C266.957 60.7237 265.973 61.0745 265.099 61.5757C263.515 62.3776 262.04 63.3299 260.456 64.1869C259.855 64.5377 259.091 64.3874 258.763 63.8862C258.271 63.1845 257.779 62.4829 257.288 61.7812C257.179 61.6308 256.905 61.5306 256.687 61.4304C256.414 61.28 256.141 61.3802 256.031 61.6308C255.922 61.9315 255.704 62.2824 255.758 62.6332C255.868 63.7859 256.578 64.8384 256.523 66.1465C256.141 66.4472 255.758 66.8482 255.376 67.0988C254.174 67.7002 252.918 68.3517 251.716 69.0534V69.0484Z" fill="black"/>
<path d="M267.394 99.9014C259.364 98.8489 252.972 98.047 244.888 97.2902C244.779 97.2902 244.342 97.2401 244.724 97.2902C242.539 82.2897 237.349 68.5422 227.845 56.5989C234.29 70.2963 236.639 83.4926 236.312 96.5384C230.904 96.0874 225.441 95.6864 219.978 95.3857C217.302 78.6762 210.091 62.122 197.527 46.1642C204.465 62.3225 208.725 78.5258 209.272 94.8344C203.591 94.5838 199.712 94.3833 193.976 94.2831C194.304 94.2831 193.048 94.2831 193.048 94.2831C189.279 76.5712 181.686 60.3127 171.525 45.212C178.08 61.27 182.778 77.5234 183.98 94.1829C179.009 94.1327 174.038 94.1829 169.067 94.233C165.953 80.285 158.415 67.6401 147.981 55.8973C154.591 68.8429 159.125 81.6883 159.945 94.3833C159.945 94.3833 158.524 94.3833 158.797 94.3332C153.663 94.4335 152.843 94.5838 147.381 94.8344C147.599 94.8344 147.818 94.7843 148.091 94.7843C143.939 83.4926 137.002 73.4087 127.77 64.3773C133.724 74.3108 138.04 84.5501 139.514 95.1852C139.842 95.1852 139.897 95.1852 139.842 95.1852H140.115C135.691 95.4358 133.069 95.6363 128.644 95.937C125.967 88.1586 121.16 80.7862 114.441 73.8598C118.374 81.4377 121.379 88.9104 122.854 96.338C119.904 96.5886 116.954 96.8392 113.95 97.0897C111.655 90.9703 107.558 85.1465 102.369 79.5282C105.537 85.5474 108.214 91.6218 109.088 97.5408L97.5072 98.7437C94.8851 94.2781 91.2252 90.4641 86.9644 86.9006C89.204 90.9653 91.0067 95.1301 91.553 99.4954C88.2208 99.8964 84.8886 100.297 81.5018 100.698C80.6824 97.7363 78.7159 95.0299 74.6189 93.0201C76.1485 95.8318 76.8586 98.5382 76.6401 101.3C74.7828 101.55 72.8709 101.801 71.0136 102.102L69.9757 102.302L67.0259 102.853C65.0594 103.154 63.1475 103.455 61.181 103.806L52.9871 105.61C52.4408 105.71 51.84 105.81 51.2391 105.961C49.928 106.211 48.617 106.462 47.4153 106.612C46.1042 106.863 44.7932 106.963 43.4276 107.013C43.0452 107.013 42.6628 107.063 42.2258 107.113H41.1333C39.713 107.113 38.3474 107.063 37.0363 106.913C33.9227 106.562 31.246 106.061 28.8425 105.259C30.4812 104.858 32.12 104.507 33.7588 104.207C41.0787 103.004 45.9404 101.345 51.7307 98.037L52.714 97.4857C53.3695 97.1348 54.025 96.7339 54.6805 96.3329C52.8232 95.9821 50.8567 95.5812 48.9448 95.4308C45.0117 95.1301 40.5324 95.3306 35.6161 96.0824C32.8848 96.4833 30.5905 97.0346 28.1323 97.5859C26.9306 97.8365 25.7288 98.1372 24.4178 98.3878C22.1781 98.8389 20.2116 99.3401 18.3543 99.8412C15.6776 97.7363 13.3833 95.2253 11.6353 92.4638L10.4335 90.3588L9.45027 88.0985C9.17715 87.5973 9.01327 87.046 8.84939 86.4446L8.68551 85.9434C8.63089 85.6928 8.52164 85.4422 8.46701 85.1415C8.30313 84.6403 8.13925 84.1391 8.08463 83.5878C7.70225 81.8838 7.48374 80.3752 7.48374 78.9719C7.48374 77.318 7.64762 76.0099 8.08463 74.9072C8.30313 74.3058 8.63089 73.7545 8.90402 73.3536C9.34102 72.8023 9.77803 72.3512 10.215 72.0004C11.1983 71.1985 12.5093 70.5469 14.0935 70.0457C16.4424 69.2438 19.0644 68.8429 21.905 68.3417C22.8882 68.1914 23.8715 67.9909 24.9094 67.8405C25.2918 67.7403 25.7288 67.6902 26.1112 67.5899L23.9808 71.4992L26.1658 70.6973C26.275 70.6472 36.9817 66.9835 44.9571 64.8284C46.3227 64.4776 48.617 63.9263 48.617 63.9263C48.617 63.9263 45.558 62.8237 44.7386 62.5731C41.898 61.721 40.2046 61.27 35.7253 61.0194C33.7588 60.9192 31.683 60.869 29.6618 61.0194C28.6786 61.0695 27.6407 61.1697 26.5482 61.3201H26.3843C25.4557 61.4705 24.4178 61.6208 23.653 61.7712C22.7244 61.9215 21.7411 62.0719 20.7578 62.1721C17.8627 62.5731 14.9129 62.974 11.7992 63.8762C9.34102 64.6279 7.26524 65.6303 5.57184 66.9384C4.6432 67.6401 3.76918 68.4921 2.9498 69.5496C2.18503 70.6021 1.58415 71.6546 1.20177 72.6619C0.437007 74.5163 0.0546259 76.5261 0 79.032C0 80.8363 0.163878 82.7959 0.600885 84.951V85.0513C1.2564 87.9631 2.45816 92.2282 4.91633 95.9871C6.44585 98.448 8.30313 100.703 10.4335 102.763C9.12252 103.465 7.97538 104.217 6.99211 105.074C4.37007 107.384 3.60531 110.792 5.02558 113.754C6.99211 117.919 12.1269 118.721 15.0221 118.771C18.6274 118.871 22.1781 118.42 25.838 117.819H25.8927L25.5649 118.12C22.5605 121.031 20.1569 124.289 18.2997 127.752C16.497 131.366 15.3499 135.18 14.8582 139.094C14.2574 143.459 15.0767 147.775 15.7322 150.687V150.787C16.2785 152.942 16.9886 154.801 17.808 156.455C18.9552 158.716 20.1569 160.47 21.6865 161.873C22.5059 162.675 23.4891 163.377 24.6909 164.028C25.8927 164.68 27.0944 165.131 28.2416 165.431C30.372 165.983 32.7209 166.133 35.2883 165.883C38.5112 165.582 41.4064 164.83 44.247 164.128C45.2302 163.878 46.1589 163.627 47.0875 163.427C47.8523 163.276 48.8355 163.026 49.7642 162.775L49.928 162.725C50.9659 162.424 51.9492 162.124 52.8778 161.823C54.7897 161.171 56.7017 160.369 58.4497 159.512C62.3827 157.608 63.7484 156.55 65.9881 154.746C66.6436 154.245 68.9378 152.085 68.9378 152.085C68.9378 152.085 66.6436 152.436 65.1687 152.586C56.9202 153.588 45.558 154.24 45.3941 154.24L43.0452 154.34L44.8478 155.693C44.8478 155.693 45.7219 156.345 46.7051 157.147C46.2681 157.247 45.8857 157.297 45.5034 157.347C44.4655 157.548 43.4822 157.798 42.4989 157.999C39.713 158.6 37.1456 159.202 34.6328 159.352C32.9394 159.452 31.4645 159.352 30.2081 159.001C29.6618 158.851 29.1156 158.6 28.4601 158.249C28.0231 157.949 27.4768 157.598 26.9852 157.097C26.1112 156.245 25.3464 155.142 24.6363 153.634C24.0354 152.381 23.5438 150.922 23.1614 149.218C22.9975 148.717 22.9429 148.166 22.8336 147.664C22.779 147.414 22.779 147.113 22.7244 146.863L22.6151 146.361C22.5059 145.76 22.3966 145.158 22.4512 144.607L22.342 142.196L22.5059 139.836C22.8882 136.724 23.8169 133.716 25.2918 130.855C26.7667 128.093 28.7332 125.487 31.1914 123.126C33.3218 121.021 35.9984 119.062 39.3853 117.257C40.5324 116.606 41.7888 116.055 43.0452 115.553C43.3729 115.403 43.7007 115.253 44.0284 115.152C44.4108 115.052 44.7932 114.902 45.121 114.802C46.3227 114.401 47.5245 114 48.7263 113.749C50.2012 113.549 51.5122 113.298 52.7686 113.048L63.4206 110.993L71.5053 109.389L76.6947 107.885C76.367 109.79 75.493 111.649 74.3458 113.504L74.5097 113.604C78.115 112.1 80.1908 109.94 81.3379 107.484C84.6701 107.184 87.9477 106.933 91.2798 106.682C90.1327 110.045 88.33 113.203 86.2542 116.365C90.4604 113.504 94.1204 110.146 97.1248 106.281C100.02 106.081 102.915 105.881 105.81 105.73C104.117 110.797 101.331 115.864 98.2173 120.831C103.407 116.015 107.722 110.948 110.617 105.48C114.223 105.279 117.828 105.129 121.433 104.978C119.248 110.897 116.135 116.821 112.42 122.69C118.702 117.172 123.618 111.198 126.951 104.778C130.938 104.628 134.926 104.577 138.914 104.477C136.455 114.561 131.375 123.993 124.765 133.125C134.762 124.795 142.519 115.313 147.708 104.327C151.751 104.277 155.793 104.327 159.835 104.327C157.76 116.32 152.242 128.158 144.922 140.001C155.957 129.366 164.478 117.724 168.739 104.427C173.546 104.527 178.299 104.628 183.051 104.828C180.32 120.736 174.42 135.887 166.664 150.837C177.753 137.039 186.547 121.989 191.955 105.229C197.363 105.48 202.771 105.83 208.125 106.181C205.994 121.838 200.477 137.089 192.392 152.14C205.83 137.841 214.243 122.786 218.558 106.983C223.857 107.434 229.92 108.036 234.618 108.487C233.799 121.432 231.45 135.13 223.802 148.176C234.29 137.19 240.518 124.044 244.068 109.489C251.88 110.391 259.582 111.444 267.284 112.551C267.776 108.537 267.776 104.272 267.394 99.9064V99.9014ZM22.6151 111.293C19.7199 111.644 16.4424 112.045 13.4926 111.444C13.4926 111.444 12.7825 111.343 12.6732 110.993C12.6186 110.642 13.2195 110.341 13.2195 110.341C14.5305 109.489 16.0054 108.888 17.4803 108.336C19.3376 109.389 21.2495 110.341 23.3252 111.198L22.6151 111.298V111.293Z" fill="black"/>
<path d="M453.122 66.0864C450.663 63.7258 448.424 61.9716 446.457 60.8189C445.474 60.2676 444.381 59.7664 443.234 59.3154C441.923 58.9645 440.776 58.7139 439.684 58.6137C439.411 58.5135 439.083 58.4633 438.81 58.4633C438.318 58.4633 437.881 58.5135 437.499 58.6137C436.898 58.8142 436.297 59.165 435.751 59.7163C435.532 59.9168 435.259 60.1173 434.877 60.418C434.494 60.6686 434.166 60.9192 434.003 61.0695C433.292 61.5206 432.692 62.1721 432.091 62.974C431.49 63.6757 430.889 64.5778 430.343 65.6854C430.124 66.1365 429.96 66.5374 429.742 66.8883C429.523 67.1389 429.469 67.3393 429.469 67.4396C429.469 67.4396 429.414 67.6401 429.305 67.9909C429.086 68.2415 428.922 68.6424 428.704 69.0935C428.431 69.745 428.048 70.5469 427.666 71.5543C427.174 72.5567 426.573 73.965 425.863 75.7693C425.645 76.2204 425.372 77.1726 424.989 78.6311C424.607 80.0895 424.224 81.543 423.787 82.9463C423.514 84.1992 423.132 86.4596 422.75 89.7223C422.476 93.0853 422.313 95.8919 422.313 98.2525C422.313 99.5055 422.367 100.513 422.476 101.215C422.695 101.916 422.968 102.668 423.35 103.37C424.334 105.074 425.044 106.382 425.426 107.184C425.918 107.986 426.3 108.587 426.628 108.938C426.847 109.188 427.174 109.69 427.666 110.441C428.158 111.243 428.649 112.045 429.141 112.902C429.742 113.704 430.288 114.506 430.78 115.363C431.38 116.265 431.817 116.917 432.091 117.267C432.309 117.618 432.528 117.969 432.801 118.37C433.019 118.721 433.129 119.022 433.238 119.172C433.347 119.372 433.511 119.623 433.839 119.974C434.112 120.325 434.44 120.676 434.713 121.077C434.986 121.427 435.314 121.828 435.587 122.279C435.86 122.73 436.133 123.131 436.297 123.482C436.57 124.034 437.007 124.685 437.499 125.487C437.99 126.289 438.591 127.291 439.247 128.449C439.465 128.9 439.738 129.401 440.121 129.953C440.394 130.504 440.667 130.955 440.885 131.306C441.104 131.757 441.322 132.208 441.596 132.659C441.869 133.11 442.142 133.411 442.36 133.611C442.633 133.862 442.961 134.313 443.234 134.814C443.507 135.265 443.781 135.666 443.999 136.067C444.218 136.518 444.436 136.969 444.709 137.42C444.982 137.871 445.201 138.172 445.31 138.372C445.911 139.174 446.403 140.227 446.785 141.485C447.167 142.743 447.44 143.946 447.55 144.998C447.659 145.9 447.714 146.552 447.714 147.003C447.331 147.354 447.003 147.604 446.84 147.705C446.457 148.055 445.911 148.356 445.201 148.657C444.491 149.008 443.944 149.208 443.453 149.208C443.234 149.108 442.961 149.108 442.579 149.208C442.196 149.308 441.869 149.409 441.541 149.459C441.049 149.659 440.503 149.759 439.902 149.86C439.301 149.86 438.536 149.91 437.553 150.01C436.351 150.01 435.587 149.96 435.204 149.86C434.822 149.86 434.33 149.709 433.729 149.459C432.746 148.907 431.927 148.406 431.217 147.955C430.452 147.504 429.796 147.003 429.305 146.452C428.704 146 428.267 145.549 427.994 145.098C427.721 144.647 427.229 143.795 426.519 142.537C426.3 142.086 426.082 141.685 425.754 141.334C425.536 140.883 425.426 140.583 425.317 140.382C425.044 140.132 424.607 139.881 424.115 139.681C423.624 139.58 423.187 139.63 422.804 139.831C422.313 140.031 422.039 140.332 421.93 140.783C421.821 141.134 421.766 141.585 421.766 142.136V143.239C421.876 144.141 421.985 144.793 422.039 145.143C422.149 145.494 422.313 145.895 422.64 146.346C423.405 147.7 424.88 149.509 426.956 151.764C429.032 154.019 430.452 155.277 431.217 155.578C431.818 155.829 432.418 156.129 433.129 156.38C433.839 156.631 434.385 156.831 434.767 156.931C434.986 157.032 435.204 157.132 435.477 157.182C435.751 157.232 436.078 157.382 436.351 157.433C436.625 157.533 437.007 157.633 437.389 157.683C437.772 157.884 438.099 157.984 438.427 158.084C439.028 158.285 439.684 158.335 440.339 158.335H440.612C441.377 158.335 442.36 158.184 443.562 157.934C444.327 157.683 444.982 157.433 445.474 157.282C445.856 157.082 446.293 156.781 446.785 156.33C447.003 156.129 447.331 155.879 447.823 155.528C448.314 155.177 448.806 154.826 449.298 154.425C450.172 153.724 450.882 153.022 451.374 152.421C451.974 151.719 452.466 150.917 452.848 150.11C453.449 148.857 453.941 147.75 454.323 146.847C454.596 145.845 454.87 145.043 455.033 144.387C455.143 143.936 455.252 143.535 455.307 143.184C455.416 142.833 455.47 142.582 455.47 142.532C455.744 141.981 455.962 141.43 456.071 140.928C456.181 140.377 456.29 139.625 456.345 138.618C456.345 137.465 456.29 136.358 456.181 135.355C455.962 134.353 455.689 133.2 455.307 131.942C454.924 130.589 454.214 129.281 453.231 128.028C452.138 126.775 450.991 125.717 449.68 124.916C448.806 124.264 447.823 123.512 446.73 122.605C445.638 121.698 445.037 121.051 444.818 120.701C444.709 120.6 444.6 120.45 444.545 120.149C444.327 119.949 444.163 119.798 443.944 119.598C443.835 119.398 443.671 119.197 443.507 118.896C443.234 118.546 442.961 118.245 442.743 118.094C441.978 117.092 441.213 116.24 440.558 115.533C439.957 114.832 439.41 114.331 438.919 114.03C438.646 113.829 438.318 113.579 438.045 113.228C437.772 112.777 437.335 112.025 436.734 110.917C435.969 109.364 435.477 108.457 435.423 108.206C435.204 107.855 435.04 107.504 434.822 107.254C434.603 106.903 434.276 106.201 433.784 105.249C433.402 104.347 433.183 103.796 433.183 103.595C433.183 103.395 432.801 102.693 431.981 101.44C431.162 100.187 430.616 99.2849 430.233 98.7286C430.015 98.478 429.796 98.1773 429.469 97.9267C429.25 97.6761 429.195 97.4757 429.195 97.3754C428.977 97.0246 428.977 96.373 429.032 95.4709C429.032 94.4685 429.086 93.817 429.195 93.4662C429.305 93.2156 429.359 92.564 429.359 91.5617C429.469 90.5593 429.523 89.3564 429.523 87.898C429.523 84.936 429.687 82.6807 429.96 81.122C430.233 79.5633 430.725 78.0597 431.435 76.506C431.654 76.2554 431.763 75.9046 431.872 75.5538C432.091 75.203 432.2 74.9022 432.309 74.6015C432.582 73.95 433.183 73.1481 434.057 72.1407C434.931 71.1333 435.751 70.4367 436.406 69.9856C436.788 69.735 437.116 69.4343 437.28 69.1837C437.553 68.9832 437.717 68.883 437.717 68.7828C437.717 68.7828 437.826 68.7326 437.99 68.6324C438.099 68.4319 438.263 68.3317 438.427 68.2315C438.7 68.1312 438.973 68.031 439.137 67.9809C439.247 67.7804 439.356 67.6801 439.411 67.5799C439.411 67.4797 439.52 67.3794 439.684 67.3293C439.902 67.1288 440.121 67.0286 440.448 66.9284C440.831 66.7279 441.159 66.6778 441.486 66.6778C441.759 66.5775 442.47 66.5775 443.562 66.6778C444.436 66.778 445.146 66.8783 445.638 66.9284C446.02 67.0286 446.566 67.179 447.277 67.4797C447.877 67.7303 448.315 67.9809 448.588 68.1312C448.97 68.3818 449.407 68.8329 449.899 69.4844C450.172 69.8353 450.609 70.2863 451.1 70.8376C451.483 71.3889 451.865 71.84 452.138 72.1908C452.411 72.5417 452.739 72.8925 453.012 73.2934C453.395 73.6443 453.668 73.8949 453.722 73.9951C454.105 74.1956 454.542 74.2457 455.033 74.1455C455.416 74.1455 455.744 73.9951 456.071 73.7445C456.29 73.544 456.508 73.1431 456.836 72.4915C456.945 72.0405 457 71.6896 457 71.3889V71.1383C456.891 70.136 455.58 68.477 453.122 66.0714V66.0864Z" fill="black"/>
<path d="M417.833 111.845C417.724 111.644 417.669 111.293 417.669 110.742C417.669 110.191 417.615 109.639 417.506 109.138C417.506 108.587 417.451 108.036 417.342 107.384V106.281C417.232 106.031 417.178 105.58 417.178 104.928C417.069 104.277 416.959 103.675 416.905 103.024C416.905 102.372 416.85 101.771 416.741 101.119C416.632 100.468 416.577 100.067 416.577 99.9164C416.468 98.6635 416.358 97.5057 416.304 96.5033C416.085 95.6012 415.976 94.8996 415.867 94.3483C415.757 93.9974 415.648 93.5965 415.594 93.1454C415.484 92.5941 415.43 92.1932 415.43 91.9426C415.43 91.5917 415.375 91.2409 415.266 90.84C415.157 90.4891 415.102 90.1884 415.102 90.0381C414.993 89.7875 414.883 89.3865 414.829 88.8352C414.61 88.2839 414.501 87.6825 414.392 87.0811C414.173 85.6276 414.009 84.5701 413.791 83.9687C413.682 83.3172 413.518 82.7157 413.354 82.0642C413.245 81.8136 413.135 81.4628 413.081 81.1119C412.972 80.8613 412.862 80.6108 412.808 80.4103C412.808 80.2098 412.698 79.9091 412.535 79.458C412.316 78.9067 412.152 78.3554 411.934 77.8542C411.715 77.3029 411.606 76.7516 411.497 76.2504C411.278 75.6991 411.224 75.2982 411.224 75.0476C411.114 74.8471 411.06 74.6968 411.06 74.4963C410.95 74.2457 410.841 74.0452 410.787 73.945C410.787 73.8447 410.732 73.6944 410.623 73.3937C410.513 73.1932 410.459 72.9927 410.459 72.692C410.35 72.4915 410.24 72.2911 410.186 72.0405C410.076 71.6896 409.967 71.3388 409.913 71.0882C409.694 70.8877 409.53 70.5369 409.312 69.9856C409.093 69.5345 408.929 69.0835 408.711 68.6324C408.438 67.9307 408.11 67.3794 407.837 67.0286C407.564 66.6778 407.017 66.1265 406.198 65.4248C405.597 64.8735 405.051 64.3723 404.559 63.9213C404.068 63.5704 403.631 63.2697 403.248 63.1194C402.647 62.7685 402.21 62.5179 401.937 62.4177H395.874C395.109 62.6683 394.563 62.9189 394.235 63.1194C393.361 63.5704 392.104 64.3723 390.575 65.5802C389.1 66.6828 388.117 67.5849 387.625 68.2916C386.86 69.1937 386.26 69.9455 385.877 70.6021C385.495 71.1534 385.112 71.7047 384.839 72.2059C384.73 72.5567 384.566 72.9075 384.238 73.3085C384.02 73.7595 383.856 74.1104 383.637 74.4111C383.528 74.6617 383.419 75.0125 383.2 75.3633C382.982 75.7142 382.873 76.065 382.763 76.3156C382.654 76.5662 382.49 76.9671 382.163 77.5184C381.889 78.0697 381.562 78.621 381.289 79.1222C381.015 79.5733 380.742 80.1747 380.578 80.8764C380.251 81.5279 380.087 81.979 379.978 82.3799C379.868 82.7308 379.759 83.2319 379.541 83.8835C379.322 84.5852 379.158 85.2367 378.94 85.788C378.721 86.3393 378.557 86.8906 378.339 87.5422C378.12 88.0935 378.066 88.4944 378.066 88.745C377.956 89.0457 377.847 89.3464 377.792 89.6973C377.683 89.9478 377.629 90.2486 377.629 90.4992C377.519 90.6996 377.465 90.9502 377.465 91.3011C377.356 91.6519 377.301 91.9526 377.301 92.2533V93.3559C377.301 93.7067 377.246 94.0576 377.137 94.3082C377.028 94.5588 376.973 95.1602 376.973 96.0623C376.864 96.8642 376.809 97.7664 376.809 98.7737C376.809 99.6759 376.755 100.829 376.645 102.287V105.951C376.536 107.053 376.481 108.006 376.481 108.913C376.372 109.715 376.318 110.216 376.318 110.416C376.208 110.667 376.099 111.92 376.044 114.08V126.725C376.044 128.379 376.099 129.336 376.208 129.687C376.318 129.937 376.427 130.338 376.481 130.89C376.481 131.341 376.536 131.792 376.645 132.243C376.918 134.047 377.137 135.355 377.246 136.207C377.355 136.909 377.519 137.711 377.683 138.518C378.066 140.071 378.393 141.279 378.721 142.181C379.104 143.084 379.595 144.086 380.196 145.143C380.906 146.396 381.507 147.454 382.108 148.256C382.709 148.957 383.474 149.809 384.457 150.717C385.331 151.519 386.205 152.17 386.97 152.621C387.844 153.172 389.428 153.974 391.667 155.082C392.268 155.333 392.705 155.483 392.979 155.483C393.361 155.583 393.798 155.633 394.29 155.633H395.164C395.546 155.533 395.874 155.483 396.038 155.483C396.638 155.132 397.567 154.731 398.878 154.28C400.08 153.729 400.954 153.428 401.555 153.328C402.32 153.077 403.467 152.576 404.942 151.824C406.307 151.022 407.4 150.22 408.164 149.514C408.929 148.812 409.694 147.96 410.35 146.953C410.95 146.051 411.879 144.442 413.135 142.086C414.119 140.282 414.829 138.824 415.211 137.771C415.703 136.769 416.14 135.716 416.522 134.508C416.632 134.057 416.741 133.606 416.795 133.155C417.014 132.704 417.123 132.353 417.232 132.052C417.724 130.449 418.052 127.988 418.27 124.725V121.863C418.27 119.503 418.161 117.147 417.997 114.787C417.997 114.135 417.943 113.534 417.833 112.982V111.845ZM413.245 116.912C413.135 118.064 413.081 118.916 413.081 119.473C412.972 119.924 412.862 120.525 412.808 121.227C412.808 121.878 412.753 122.43 412.644 122.981C412.644 123.883 412.589 125.086 412.48 126.645C412.371 128.198 412.261 130.008 412.043 132.213C411.934 133.315 411.824 134.117 411.77 134.674C411.551 135.125 411.278 135.927 410.896 136.984C409.913 139.345 408.984 141.249 408.11 142.653C407.127 144.006 405.925 145.314 404.559 146.567C403.685 147.369 402.811 148.02 401.883 148.471C400.899 149.023 399.861 149.424 398.769 149.674C397.458 149.925 396.42 149.975 395.491 149.825C394.727 149.724 393.689 149.223 392.378 148.321C391.613 147.77 390.957 147.268 390.466 146.817C390.083 146.366 389.646 145.765 389.155 145.063C388.936 144.712 388.718 144.362 388.445 143.961C388.226 143.71 388.062 143.459 387.844 143.309C387.734 143.209 387.571 143.059 387.407 142.758C387.297 142.507 387.188 142.156 387.134 141.806C386.86 140.653 386.587 139.801 386.423 139.345C386.205 138.793 385.986 138.392 385.659 138.142C385.44 138.042 385.331 137.891 385.222 137.741C385.112 137.54 385.003 137.39 384.949 137.19C384.949 137.089 384.839 136.839 384.675 136.388C384.402 135.836 384.074 135.285 383.801 134.734C383.419 134.032 383.091 133.381 382.927 132.829C382.709 132.278 382.6 131.677 382.49 131.075C382.272 129.922 382.217 128.163 382.217 125.808C382.217 123.452 382.326 121.092 382.49 118.731C382.763 115.568 383.037 113.463 383.255 112.361C383.474 111.359 383.911 109.9 384.566 107.895C384.785 107.344 384.948 106.743 385.167 105.991C385.44 105.289 385.659 104.688 385.768 104.237C386.041 103.335 386.26 102.482 386.369 101.625C386.478 100.924 386.642 99.3651 386.806 97.0096C387.079 94.0977 387.297 92.0929 387.407 90.9402C387.625 89.8376 387.898 88.4794 388.281 86.8756C388.499 85.9734 388.718 85.0713 388.991 84.1642C389.209 83.262 389.373 82.6105 389.592 82.2597C389.701 81.9088 389.81 81.4577 389.865 80.9064C390.083 80.3551 390.193 79.9041 390.302 79.5533C390.411 79.1022 390.52 78.7513 390.739 78.4506C390.848 78.0998 390.903 77.8492 390.903 77.7991C391.012 77.6989 391.067 77.5485 391.067 77.3981C391.176 77.1977 391.23 77.0974 391.23 76.9972C391.23 76.5461 391.941 75.2932 393.306 73.1832C394.672 71.1784 395.764 69.8202 396.529 69.1186C396.912 68.868 397.349 68.6174 397.731 68.467C398.113 68.2665 398.55 68.2164 399.042 68.2164C399.752 68.2164 400.517 68.4169 401.391 68.868C402.156 69.319 402.975 69.9706 403.74 70.7725C404.723 71.7748 405.542 73.0328 406.253 74.5865C406.963 76.1903 407.782 78.6511 408.765 81.9138C409.476 83.9687 409.913 85.5775 410.076 86.63C410.295 87.7326 410.404 89.1409 410.513 90.845C410.513 91.4965 410.623 92.2984 410.787 93.3058C410.896 94.2079 411.06 95.0098 411.224 95.7666C411.442 96.4683 411.551 97.3704 411.661 98.3277C411.879 99.33 411.988 100.082 412.098 100.638C412.098 101.29 412.152 102.041 412.261 102.949C412.371 103.751 412.535 104.502 412.698 105.104C412.917 106.006 412.972 106.958 412.972 107.965C413.081 108.868 413.19 110.426 413.245 112.581C413.245 114.336 413.245 115.744 413.245 116.947V116.912Z" fill="black"/>
<path d="M373.368 150.13C373.368 149.88 373.259 149.378 373.095 148.627C372.985 147.925 372.876 147.223 372.822 146.622C372.712 145.97 372.603 145.319 372.548 144.567C372.439 143.865 372.33 143.314 372.275 142.963C372.166 142.612 372.057 142.161 372.002 141.61C371.893 141.059 371.784 140.608 371.729 140.257C371.511 139.104 371.183 137.596 370.691 135.791C370.09 133.987 369.708 132.93 369.489 132.679C369.38 132.478 369.107 131.426 368.615 129.416C368.014 127.411 367.523 125.552 367.14 123.848C367.031 123.297 366.867 122.695 366.54 121.944C366.212 121.192 365.993 120.64 365.829 120.189C365.72 120.089 365.611 119.939 365.556 119.788V119.488C365.556 119.488 365.447 119.287 365.283 118.936C365.174 118.586 365.01 118.185 364.682 117.734C364.464 117.283 364.3 116.731 364.081 116.13C363.808 115.428 363.59 114.827 363.481 114.376C363.371 113.925 363.207 113.323 362.88 112.621C362.661 111.92 362.497 111.318 362.279 110.867C362.06 110.316 361.896 109.815 361.678 109.364C361.569 109.013 361.514 108.762 361.514 108.662C361.514 108.311 361.35 107.66 361.077 106.758C360.804 105.956 360.531 105.455 360.312 105.254C360.094 105.054 359.93 104.603 359.711 103.901C359.493 103.099 359.438 102.447 359.438 101.996C359.438 101.896 359.384 101.696 359.274 101.345C359.165 100.994 359.11 100.643 359.11 100.393C359.001 100.042 358.892 99.4904 358.837 98.7888C358.728 98.1372 358.673 97.4857 358.673 96.784C358.564 96.1325 358.51 95.3306 358.51 94.3232C358.4 93.3208 358.291 92.4688 358.236 91.7621C357.745 87.6975 357.472 84.6854 357.362 82.831C357.144 80.8263 357.089 78.3654 357.089 75.3533C356.98 72.6419 356.816 70.7374 356.652 69.6348C356.434 68.482 356.106 67.3744 355.614 66.3721C355.396 66.0212 355.177 65.6203 354.85 65.1692C354.631 64.6179 354.522 64.217 354.413 63.9664C354.303 63.7158 354.194 63.4151 354.14 63.1645C354.03 62.9139 353.976 62.7134 353.976 62.6132C353.866 62.4127 353.757 62.2122 353.703 61.9115C353.593 61.6609 353.484 61.3602 353.266 61.1096C352.883 60.007 352.446 59.2552 351.954 58.7991C351.572 58.4483 351.135 58.2478 350.643 58.2478C350.043 58.2478 349.551 58.4483 349.169 58.7991C348.895 59.15 348.622 59.7514 348.404 60.5533V62.7084C348.295 63.9614 348.24 65.3697 348.24 66.9234C348.131 69.8353 348.021 71.9904 347.967 73.4438C347.748 74.8972 347.475 76.4559 347.093 78.2101C346.984 78.6611 346.874 79.3127 346.82 80.1146C346.601 80.8162 346.492 81.568 346.383 82.2697C346.273 82.9212 346.164 83.5226 346.109 84.1742C346 84.8257 345.946 85.2768 345.946 85.5274C345.836 85.7279 345.727 86.1789 345.672 86.8806C345.454 87.5321 345.345 88.1837 345.235 88.9355C345.017 89.587 344.908 90.2886 344.798 91.0905C344.58 91.7922 344.471 92.3435 344.361 92.6943C344.252 93.0452 344.143 93.4962 344.088 94.0475C343.979 94.5988 343.924 95.0499 343.924 95.4007C343.924 95.8518 343.87 96.5034 343.761 97.3052C343.542 98.0069 343.433 98.7587 343.324 99.4604C343.214 100.162 343.05 100.964 342.887 101.771C342.777 102.573 342.668 103.174 342.613 103.525C342.613 103.876 342.504 104.427 342.34 105.179C342.231 105.881 342.122 106.582 342.067 107.234C341.958 107.885 341.849 108.687 341.63 109.695C341.521 110.697 341.466 111.549 341.466 112.256C341.357 113.709 341.248 114.767 341.029 115.518C340.92 116.22 340.811 116.671 340.756 116.721C340.647 116.821 340.428 116.872 339.991 116.872C339.5 116.972 339.008 117.022 338.517 117.022C337.806 117.122 337.26 117.172 336.768 117.172C336.386 117.273 336.058 117.373 335.894 117.423C335.621 117.623 335.348 117.974 335.13 118.525C335.13 118.726 335.075 118.876 334.966 119.077C334.966 119.277 335.02 119.428 335.13 119.628C335.239 119.929 335.567 120.179 336.168 120.43C336.768 120.681 337.26 120.831 337.642 120.831C338.025 120.831 338.353 121.031 338.68 121.382C338.954 121.633 339.172 122.034 339.281 122.585C339.5 123.237 339.554 124.946 339.554 127.752C339.554 130.559 339.445 132.368 339.281 133.421C339.063 134.122 339.008 135.075 339.008 136.132C338.899 137.285 338.844 139.094 338.844 141.55C338.844 144.712 338.899 146.617 339.008 147.218C339.008 147.87 339.172 148.371 339.445 148.822C339.718 149.373 340.101 149.724 340.483 149.925C340.865 150.125 341.302 150.125 341.794 150.075C342.559 149.975 343.05 149.674 343.269 149.123C343.378 148.471 343.487 146.311 343.542 142.602C343.542 140.798 343.597 139.139 343.706 137.586C343.815 136.032 343.87 135.075 343.87 134.724C343.979 134.373 344.088 133.872 344.143 133.22C344.252 132.569 344.307 132.068 344.307 131.616C344.416 131.065 344.525 130.363 344.744 129.461C344.853 128.559 344.962 127.707 345.017 126.9C345.235 126.199 345.345 125.447 345.454 124.745C345.563 124.044 345.618 123.592 345.618 123.392C345.618 122.841 345.782 122.49 346.055 122.289C346.437 122.189 347.202 122.139 348.24 122.139C349.933 122.239 351.463 122.44 352.938 122.791C354.413 123.141 355.505 123.592 356.161 124.144C356.379 124.394 356.434 124.695 356.434 124.946C356.543 125.196 356.598 125.898 356.598 127.001V129.005C356.707 129.707 356.762 130.258 356.762 130.609C356.98 131.962 357.144 133.12 357.362 134.022C357.581 134.924 357.69 135.476 357.799 135.676C357.909 135.776 357.963 135.927 357.963 136.227C358.073 136.478 358.182 136.729 358.236 136.929C358.236 137.18 358.291 137.581 358.4 138.132C358.619 138.683 358.783 139.184 359.001 139.635C359.11 140.187 359.274 140.738 359.438 141.239C359.547 141.791 359.602 142.242 359.602 142.592C359.711 142.843 359.821 143.194 359.875 143.545C359.984 143.896 360.039 144.246 360.039 144.497C360.312 145.148 360.64 146.051 360.913 147.208C361.186 148.461 361.405 149.313 361.514 149.769C361.514 149.97 361.623 150.22 361.787 150.571C361.896 151.022 362.006 151.373 362.06 151.674C362.17 152.025 362.279 152.426 362.333 152.877C362.552 153.328 362.661 153.679 362.77 153.979C362.88 154.33 363.044 154.831 363.371 155.483C363.644 156.134 363.972 156.686 364.245 157.237C364.737 158.34 365.174 159.041 365.556 159.392C365.829 159.743 366.321 160.044 367.031 160.194C367.414 160.294 367.796 160.344 368.233 160.344H368.67C369.162 160.244 369.708 160.044 370.309 159.643C371.019 159.292 371.511 158.891 371.948 158.44C372.439 158.089 372.876 157.588 373.259 156.936C373.532 156.485 373.805 156.134 374.023 155.834V153.679C374.023 153.027 373.969 152.426 373.859 151.774C373.586 151.022 373.477 150.471 373.368 150.12V150.13ZM356.816 115.659C356.707 116.21 356.598 116.561 356.543 116.761C356.543 116.862 356.325 117.012 355.942 117.162C355.724 117.262 355.451 117.363 355.068 117.413C354.577 117.513 354.194 117.563 353.866 117.563C352.774 117.663 351.408 117.563 349.715 117.313C348.021 117.112 347.038 116.912 346.601 116.661C346.328 116.461 346.164 116.36 346.164 116.26V115.458C346.273 115.208 346.328 114.556 346.328 113.554C346.437 112.451 346.492 111.348 346.492 110.191C346.492 108.737 346.546 107.479 346.656 106.377C346.656 105.374 346.71 104.623 346.82 104.066C346.929 103.615 347.038 103.014 347.093 102.312C347.147 101.61 347.311 100.959 347.366 100.408C347.475 99.8563 347.53 99.305 347.53 98.8038C347.639 98.2525 347.748 97.8515 347.803 97.6009C347.803 97.3504 347.858 96.9494 347.967 96.4983C348.076 96.0473 348.185 95.5962 348.24 95.1451C348.24 94.6941 348.295 94.1428 348.404 93.5414C348.513 92.99 348.622 92.539 348.677 92.1881C348.895 91.6368 349.005 91.1357 349.114 90.6846C349.223 90.1333 349.387 89.3314 349.551 88.2238C349.66 87.8729 349.769 87.472 349.824 87.0209C350.043 86.4696 350.152 86.0185 350.261 85.6677C350.37 85.2166 350.48 84.7155 350.534 84.1642C350.643 83.6128 350.753 83.1618 350.807 82.811C350.807 82.1594 350.917 81.6582 351.08 81.2072C351.299 80.6559 351.463 80.4053 351.681 80.4053C351.9 80.4053 352.009 80.6057 352.118 80.9566C352.228 81.3074 352.337 81.9589 352.555 82.8611C352.665 83.3121 352.774 83.8133 352.828 84.3646C352.938 84.8157 353.047 85.1665 353.102 85.4672C353.211 86.0185 353.375 87.4219 353.539 89.6822C353.757 91.9426 353.866 93.8972 353.976 95.501C354.085 97.0547 354.249 98.7136 354.577 100.518C354.795 102.322 354.959 103.68 355.177 104.582C355.778 106.587 356.161 107.996 356.379 108.898C356.598 109.9 356.652 110.953 356.652 112.16C356.762 112.862 356.816 113.614 356.816 114.316C356.871 114.817 356.816 115.318 356.816 115.669V115.659Z" fill="black"/>
<path d="M334.583 69.3992C334.092 68.7978 333.546 68.447 332.89 68.2966C332.398 68.2966 331.688 68.4971 330.76 68.9481C329.776 69.2489 328.848 69.75 327.864 70.5018C326.881 71.2536 325.843 71.9051 324.751 72.4564C323.604 72.9075 323.003 73.0579 322.839 72.9075C322.675 72.7572 322.566 71.3037 322.566 68.4921V58.5586C322.566 53.9928 322.675 49.5272 322.839 45.1117C322.839 40.8467 322.894 38.3357 323.057 37.6341C323.221 37.183 323.385 36.331 323.549 34.9728C323.713 33.82 323.768 32.562 323.768 31.2088C323.931 29.6051 324.095 28.297 324.259 27.2445C324.423 26.192 324.587 25.3901 324.751 24.8338C325.242 23.681 325.461 22.1223 325.461 20.2178C325.625 18.3133 325.516 16.7546 325.242 15.6019C325.079 14.5995 324.368 13.2413 323.057 11.6375C321.965 10.0337 320.435 8.27458 318.523 6.37007C317.54 5.46794 316.666 4.51569 315.901 3.5083C314.918 2.50593 314.372 1.80427 314.208 1.55368C313.716 0.801897 313.389 0.35083 313.225 0.250593C312.897 0.100237 312.405 0 311.804 0C310.821 0 309.947 0.300712 309.182 0.902135C308.363 1.65391 307.817 2.50593 307.489 3.56343C306.67 5.76865 306.123 8.029 305.796 10.3896C305.632 12.7502 305.468 16.1081 305.304 20.5236C305.14 28.4523 305.031 36.7319 305.031 45.4125C305.031 54.093 305.195 59.5609 305.522 61.9215C305.686 63.0743 305.741 64.1819 305.741 65.2344V66.5374C305.413 66.8382 304.922 66.6878 304.321 66.0864C303.665 65.6353 302.955 64.9337 302.136 63.8812C301.644 63.2797 300.879 62.4277 299.732 61.2199C298.476 59.9168 297.165 58.5586 295.908 57.2555C293.177 54.5942 290.61 52.0381 288.261 49.5272C285.857 46.8659 284.164 44.811 283.235 43.3576C282.743 42.7562 282.143 41.9543 281.323 40.9469C280.504 39.9395 279.794 38.9923 279.193 38.0851C278.537 37.183 277.718 36.2307 276.789 35.2233C275.97 34.221 275.369 33.3188 274.877 32.5621C274.386 31.9606 273.839 31.4093 273.184 30.8079C272.692 30.0561 272.31 29.5549 271.982 29.2542C271.654 28.9535 271.163 28.4523 270.562 27.7005C269.906 26.9488 269.36 26.1469 268.869 25.2898C267.721 23.8364 265.973 21.8266 263.57 19.3708C261.002 16.8599 259.364 15.4065 258.544 14.9554C258.216 14.6547 257.834 14.5043 257.342 14.5043H255.212C253.628 14.6547 252.426 14.9554 251.607 15.4065C250.951 15.7072 250.077 16.3587 248.985 17.3611C248.001 18.1129 247.455 18.614 247.291 18.9148C247.127 19.2155 247.073 19.867 247.073 20.8694C247.073 21.7715 247.182 22.4231 247.291 22.8741C247.455 23.1748 247.783 23.676 248.275 24.4278C248.602 24.8789 248.985 25.3801 249.476 25.9815C249.804 26.5829 250.132 27.0841 250.46 27.5352C251.115 28.4373 252.153 29.4397 253.573 30.6475C254.994 31.6499 256.632 32.7525 258.38 33.9604C261.439 35.5642 263.734 37.0226 265.318 38.3758C266.902 39.6789 268.814 41.5884 271.054 44.0943C272.201 45.2471 273.402 46.7556 274.659 48.5098C275.915 50.2639 276.571 51.3214 276.571 51.572C276.571 51.7224 277.226 52.6746 278.483 54.4338C279.63 56.0376 280.504 57.2956 281.105 58.1977C281.269 58.3481 281.924 58.9996 283.017 60.2025C284.109 61.2048 285.311 62.4077 286.622 63.7158C288.862 65.921 290.282 67.3794 290.937 68.1312C291.429 68.883 291.921 69.735 292.358 70.7925C292.685 71.9452 293.341 73.0529 294.27 74.1054C295.089 75.2581 296.455 76.6163 298.367 78.0697C300.278 79.5232 301.808 80.7811 302.9 81.7835C304.157 82.9362 304.922 83.7381 305.031 84.1942C305.031 84.3446 305.249 84.6954 305.741 85.2968C306.069 85.8983 306.451 86.5498 306.943 87.2515C307.926 88.7049 308.308 89.7624 308.145 90.3137C307.981 90.7648 306.943 92.0177 305.031 94.0776C303.611 95.5311 302.573 96.7389 301.917 97.5909C301.098 98.4931 300.333 99.4954 299.514 100.653C299.186 101.104 298.694 101.706 298.093 102.407C297.602 103.159 297.055 103.861 296.4 104.613C295.744 105.364 295.034 106.216 294.215 107.274C293.396 108.326 292.795 109.279 292.303 110.136C291.484 111.138 290.61 112.341 289.681 113.649C288.534 114.802 287.114 116.36 285.366 118.265C284.109 119.568 282.907 120.826 281.76 121.979C280.777 123.131 280.231 123.833 280.067 123.983C280.067 124.134 279.903 124.334 279.575 124.635L278.592 125.537C278.264 125.687 277.773 126.038 277.172 126.64C276.68 127.241 276.243 127.742 275.751 128.193C273.839 130.704 272.419 132.509 271.436 133.711C270.453 134.764 269.743 135.466 269.306 135.917L267.612 137.47C266.793 138.372 265.864 139.375 264.717 140.533C263.734 141.585 262.86 142.587 262.095 143.595C261.112 144.647 260.511 145.199 260.183 145.349C259.855 145.65 259.473 146.101 258.981 146.652C258.49 147.103 258.107 147.554 257.779 147.955C257.452 148.557 257.069 149.108 256.578 149.709C255.922 150.461 255.485 151.012 255.157 151.463C254.174 152.516 253.464 153.518 252.972 154.526C252.645 155.578 252.645 156.53 252.972 157.387C253.136 158.139 253.519 158.64 254.174 158.941C254.666 159.242 255.376 159.292 256.305 159.142C256.632 159.142 257.015 158.991 257.506 158.691C258.162 158.239 258.872 157.588 259.637 156.736C261.221 155.282 263.788 152.822 267.339 149.459C270.999 146.096 273.894 143.49 275.97 141.73C279.466 138.618 282.58 135.711 285.311 132.95C288.042 129.988 290.719 126.73 293.45 123.016C293.778 122.715 294.27 122.064 294.87 121.011C295.69 120.109 296.4 119.257 297.055 118.35C297.875 117.448 298.64 116.496 299.459 115.488C300.278 114.436 300.879 113.634 301.371 113.078C301.863 112.476 302.3 111.825 302.791 111.073C303.283 110.471 303.665 109.97 303.993 109.519C304.321 109.218 304.812 108.717 305.413 107.965C305.905 107.364 306.287 106.813 306.615 106.211C307.434 105.209 308.308 104.257 309.237 103.35C310.056 102.598 310.657 102.247 311.149 102.247C311.477 102.247 311.641 102.397 311.641 102.698C311.804 102.999 311.859 103.7 311.859 104.903C311.859 107.108 311.968 108.868 312.078 110.171C312.241 111.323 312.405 112.581 312.569 113.935C312.733 114.536 312.897 115.338 313.061 116.345C313.389 117.498 313.552 118.551 313.552 119.408C313.88 121.312 314.099 122.72 314.263 123.572C314.426 124.324 314.754 125.933 315.246 128.439C315.41 129.441 315.574 130.394 315.738 131.301C315.901 132.052 316.065 132.453 316.229 132.604C316.229 132.904 316.338 133.606 316.502 134.809C316.666 135.962 316.994 138.172 317.486 141.43C317.486 142.181 317.649 143.234 317.977 144.743C318.141 146.346 318.36 147.755 318.687 148.907C318.851 150.21 319.015 151.569 319.179 152.872C319.343 154.325 319.397 155.383 319.397 155.934C319.397 156.986 319.452 157.638 319.616 157.939C319.616 158.39 319.78 158.741 320.108 159.041C320.763 159.643 321.528 159.943 322.511 159.943C323.494 159.943 324.205 159.743 324.696 159.292C325.188 158.691 325.679 158.039 326.116 157.287C326.444 156.385 326.663 155.433 326.827 154.425C327.154 153.122 327.209 149.509 327.045 143.64C327.045 137.771 326.881 134.107 326.553 132.604C326.39 131.451 326.171 129.141 325.843 125.778C325.679 122.415 325.516 118.35 325.352 113.684C325.188 112.08 325.024 110.371 324.86 108.617C324.696 107.013 324.368 104.452 323.877 100.889C323.713 99.8864 323.549 98.478 323.385 96.7239C323.221 94.8194 323.167 93.0101 323.167 91.2058C323.003 88.3942 322.839 86.3393 322.675 85.0362C323.167 84.1341 323.494 83.5828 323.658 83.2821C324.314 82.1293 324.915 81.1771 325.57 80.4203C326.226 79.8189 327.264 79.1172 328.684 78.2151C330.76 76.7616 332.344 75.4034 333.491 74.2507C334.747 72.9476 335.403 71.84 335.403 70.9379C335.512 70.5369 335.184 69.9856 334.583 69.3842V69.3992Z" fill="black"/>
</g>
<defs>
<clipPath id="clip0_7519_482">
<rect width="457" height="166" fill="white"/>
</clipPath>
</defs>
</svg>
